<?xml version="1.0" encoding="UTF-8" standalone="no"?>
<!DOCTYPE svg PUBLIC "-//W3C//DTD SVG 1.1//EN"
 "http://www.w3.org/Graphics/SVG/1.1/DTD/svg11.dtd">
<!-- Generated by graphviz version 2.43.0 (0)
 -->
<!-- Title: %3 Pages: 1 -->
<svg width="2100pt" height="402pt"
 viewBox="0.00 0.00 1008.00 192.82" xmlns="http://www.w3.org/2000/svg" xmlns:xlink="http://www.w3.org/1999/xlink">
<g id="graph0" class="graph" transform="scale(1.99 1.99) rotate(0) translate(4 198)">
<title>%3</title>
<polygon fill="white" stroke="transparent" points="-4,4 -4,-198 1052,-198 1052,4 -4,4"/>
<g id="clust1" class="cluster">
<title>cluster_cooldown</title>
<path fill="#fff8dc" stroke="#ffa500" stroke-width="2" d="M20,-8C20,-8 1028,-8 1028,-8 1034,-8 1040,-14 1040,-20 1040,-20 1040,-174 1040,-174 1040,-180 1034,-186 1028,-186 1028,-186 20,-186 20,-186 14,-186 8,-180 8,-174 8,-174 8,-20 8,-20 8,-14 14,-8 20,-8"/>
<text text-anchor="middle" x="524" y="-170.8" font-family="Times,serif" font-size="14.00">Cooldown 状态详细处理</text>
</g>
<!-- cooldown_entry -->
<g id="node1" class="node">
<title>cooldown_entry</title>
<path fill="#ffa500" stroke="black" d="M142,-105C142,-105 28,-105 28,-105 22,-105 16,-99 16,-93 16,-93 16,-81 16,-81 16,-75 22,-69 28,-69 28,-69 142,-69 142,-69 148,-69 154,-75 154,-81 154,-81 154,-93 154,-93 154,-99 148,-105 142,-105"/>
<text text-anchor="middle" x="85" y="-90" font-family="Noto Sans CJK SC" font-size="10.00">进入 Cooldown</text>
<text text-anchor="middle" x="85" y="-79" font-family="Noto Sans CJK SC" font-size="10.00">StartRecovery(delayMs&gt;0)</text>
</g>
<!-- new_request -->
<g id="node2" class="node">
<title>new_request</title>
<path fill="#e8e8e8" stroke="black" d="M331,-105C331,-105 245,-105 245,-105 239,-105 233,-99 233,-93 233,-93 233,-81 233,-81 233,-75 239,-69 245,-69 245,-69 331,-69 331,-69 337,-69 343,-75 343,-81 343,-81 343,-93 343,-93 343,-99 337,-105 331,-105"/>
<text text-anchor="middle" x="288" y="-90" font-family="Noto Sans CJK SC" font-size="10.00">新请求到达</text>
<text text-anchor="middle" x="288" y="-79" font-family="Noto Sans CJK SC" font-size="10.00">EnsureLiveSession()</text>
</g>
<!-- cooldown_entry&#45;&gt;new_request -->
<!-- check_cooldown -->
<g id="node3" class="node">
<title>check_cooldown</title>
<path fill="#ffe4b5" stroke="black" d="M504.28,-114.42C504.28,-114.42 391.72,-89.58 391.72,-89.58 385.86,-88.29 385.86,-85.71 391.72,-84.42 391.72,-84.42 504.28,-59.58 504.28,-59.58 510.14,-58.29 521.86,-58.29 527.72,-59.58 527.72,-59.58 640.28,-84.42 640.28,-84.42 646.14,-85.71 646.14,-88.29 640.28,-89.58 640.28,-89.58 527.72,-114.42 527.72,-114.42 521.86,-115.71 510.14,-115.71 504.28,-114.42"/>
<text text-anchor="middle" x="516" y="-90" font-family="Noto Sans CJK SC" font-size="10.00">CooldownActive()?</text>
<text text-anchor="middle" x="516" y="-79" font-family="Noto Sans CJK SC" font-size="10.00">(now &lt; cooldownUntilMs)</text>
</g>
<!-- new_request&#45;&gt;check_cooldown -->
<g id="edge2" class="edge">
<title>new_request&#45;&gt;check_cooldown</title>
<path fill="none" stroke="black" d="M343.13,-87C351.48,-87 360.41,-87 369.67,-87"/>
<polygon fill="black" stroke="black" points="369.82,-90.5 379.82,-87 369.82,-83.5 369.82,-90.5"/>
</g>
<!-- wait_cooldown -->
<g id="node4" class="node">
<title>wait_cooldown</title>
<path fill="#ffd700" stroke="black" d="M894,-71C894,-71 772,-71 772,-71 766,-71 760,-65 760,-59 760,-59 760,-47 760,-47 760,-41 766,-35 772,-35 772,-35 894,-35 894,-35 900,-35 906,-41 906,-47 906,-47 906,-59 906,-59 906,-65 900,-71 894,-71"/>
<text text-anchor="middle" x="833" y="-56" font-family="Noto Sans CJK SC" font-size="10.00">WaitForCooldownToSettle()</text>
<text text-anchor="middle" x="833" y="-45" font-family="Noto Sans CJK SC" font-size="10.00">阻塞等待</text>
</g>
<!-- check_cooldown&#45;&gt;wait_cooldown -->
<g id="edge3" class="edge">
<title>check_cooldown&#45;&gt;wait_cooldown</title>
<path fill="none" stroke="black" d="M562.52,-67.14C592.43,-55.19 632.77,-41.15 670,-35 701.57,-29.78 710.16,-31.85 742,-35 744.66,-35.26 747.35,-35.57 750.07,-35.91"/>
<polygon fill="black" stroke="black" points="749.59,-39.38 759.98,-37.29 750.56,-32.44 749.59,-39.38"/>
<text text-anchor="middle" x="706" y="-53.8" font-family="Times,serif" font-size="14.00">是</text>
<text text-anchor="middle" x="706" y="-38.8" font-family="Times,serif" font-size="14.00">(仍在冷却)</text>
</g>
<!-- cooldown_expired -->
<g id="node5" class="node">
<title>cooldown_expired</title>
<path fill="#90ee90" stroke="black" d="M864,-143C864,-143 802,-143 802,-143 796,-143 790,-137 790,-131 790,-131 790,-119 790,-119 790,-113 796,-107 802,-107 802,-107 864,-107 864,-107 870,-107 876,-113 876,-119 876,-119 876,-131 876,-131 876,-137 870,-143 864,-143"/>
<text text-anchor="middle" x="833" y="-122.5" font-family="Noto Sans CJK SC" font-size="10.00">Cooldown 结束</text>
</g>
<!-- check_cooldown&#45;&gt;cooldown_expired -->
<g id="edge4" class="edge">
<title>check_cooldown&#45;&gt;cooldown_expired</title>
<path fill="none" stroke="black" d="M604.33,-97.53C660.64,-104.33 732.01,-112.94 779.68,-118.69"/>
<polygon fill="black" stroke="black" points="779.43,-122.18 789.78,-119.91 780.27,-115.23 779.43,-122.18"/>
<text text-anchor="middle" x="706" y="-131.8" font-family="Times,serif" font-size="14.00">否</text>
<text text-anchor="middle" x="706" y="-116.8" font-family="Times,serif" font-size="14.00">(冷却结束)</text>
</g>
<!-- wait_cooldown&#45;&gt;check_cooldown -->
<g id="edge5" class="edge">
<title>wait_cooldown&#45;&gt;check_cooldown</title>
<path fill="none" stroke="black" stroke-dasharray="5,2" d="M759.82,-62.85C753.79,-63.6 747.79,-64.33 742,-65 703.42,-69.46 661.05,-73.75 623.58,-77.35"/>
<polygon fill="black" stroke="black" points="622.78,-73.91 613.15,-78.35 623.44,-80.88 622.78,-73.91"/>
<text text-anchor="middle" x="706" y="-75.8" font-family="Times,serif" font-size="14.00">唤醒后检查</text>
</g>
<!-- to_recovering -->
<g id="node6" class="node">
<title>to_recovering</title>
<path fill="#ffd700" stroke="black" d="M1020,-143C1020,-143 955,-143 955,-143 949,-143 943,-137 943,-131 943,-131 943,-119 943,-119 943,-113 949,-107 955,-107 955,-107 1020,-107 1020,-107 1026,-107 1032,-113 1032,-119 1032,-119 1032,-131 1032,-131 1032,-137 1026,-143 1020,-143"/>
<text text-anchor="middle" x="987.5" y="-128" font-family="Noto Sans CJK SC" font-size="10.00">进入 Recovering</text>
<text text-anchor="middle" x="987.5" y="-117" font-family="Noto Sans CJK SC" font-size="10.00">自动尝试恢复</text>
</g>
<!-- cooldown_expired&#45;&gt;to_recovering -->
<g id="edge6" class="edge">
<title>cooldown_expired&#45;&gt;to_recovering</title>
<path fill="none" stroke="black" d="M876.07,-125C893.63,-125 914.23,-125 932.86,-125"/>
<polygon fill="black" stroke="black" points="932.97,-128.5 942.97,-125 932.97,-121.5 932.97,-128.5"/>
</g>
</g>
</svg>
