<?xml version="1.0" encoding="UTF-8" standalone="no"?>
<!DOCTYPE svg PUBLIC "-//W3C//DTD SVG 1.1//EN"
 "http://www.w3.org/Graphics/SVG/1.1/DTD/svg11.dtd">
<!-- Generated by graphviz version 2.43.0 (0)
 -->
<!-- Title: %3 Pages: 1 -->
<svg width="2356pt" height="206pt"
 viewBox="0.00 0.00 1131.00 99.00" xmlns="http://www.w3.org/2000/svg" xmlns:xlink="http://www.w3.org/1999/xlink">
<g id="graph0" class="graph" transform="scale(2.08 2.08) rotate(0) translate(4 95)">
<title>%3</title>
<polygon fill="white" stroke="transparent" points="-4,4 -4,-95 1127,-95 1127,4 -4,4"/>
<g id="clust1" class="cluster">
<title>cluster_policy</title>
<path fill="#f5f5f5" stroke="black" d="M20,-8C20,-8 1103,-8 1103,-8 1109,-8 1115,-14 1115,-20 1115,-20 1115,-71 1115,-71 1115,-77 1109,-83 1103,-83 1103,-83 20,-83 20,-83 14,-83 8,-77 8,-71 8,-71 8,-20 8,-20 8,-14 14,-8 20,-8"/>
<text text-anchor="middle" x="561.5" y="-67.8" font-family="Times,serif" font-size="14.00">策略决策矩阵</text>
</g>
<!-- header_0 -->
<g id="node1" class="node">
<title>header_0</title>
<path fill="#d3d3d3" stroke="black" stroke-width="2" d="M1095,-52C1095,-52 1043,-52 1043,-52 1037,-52 1031,-46 1031,-40 1031,-40 1031,-28 1031,-28 1031,-22 1037,-16 1043,-16 1043,-16 1095,-16 1095,-16 1101,-16 1107,-22 1107,-28 1107,-28 1107,-40 1107,-40 1107,-46 1101,-52 1095,-52"/>
<text text-anchor="middle" x="1069" y="-31.5" font-family="Noto Sans CJK SC" font-size="10.00">EngineDeath</text>
</g>
<!-- header_1 -->
<g id="node2" class="node">
<title>header_1</title>
<path fill="#d3d3d3" stroke="black" stroke-width="2" d="M1001,-52C1001,-52 949,-52 949,-52 943,-52 937,-46 937,-40 937,-40 937,-28 937,-28 937,-22 943,-16 949,-16 949,-16 1001,-16 1001,-16 1007,-16 1013,-22 1013,-28 1013,-28 1013,-40 1013,-40 1013,-46 1007,-52 1001,-52"/>
<text text-anchor="middle" x="975" y="-31.5" font-family="Noto Sans CJK SC" font-size="10.00">ExecTimeout</text>
</g>
<!-- header_2 -->
<g id="node3" class="node">
<title>header_2</title>
<path fill="#d3d3d3" stroke="black" stroke-width="2" d="M906.5,-52C906.5,-52 857.5,-52 857.5,-52 851.5,-52 845.5,-46 845.5,-40 845.5,-40 845.5,-28 845.5,-28 845.5,-22 851.5,-16 857.5,-16 857.5,-16 906.5,-16 906.5,-16 912.5,-16 918.5,-22 918.5,-28 918.5,-28 918.5,-40 918.5,-40 918.5,-46 912.5,-52 906.5,-52"/>
<text text-anchor="middle" x="882" y="-31.5" font-family="Noto Sans CJK SC" font-size="10.00">IdleTimeout</text>
</g>
<!-- EngineDeath_Restart(delay&gt;0) -->
<g id="node4" class="node">
<title>EngineDeath_Restart(delay&gt;0)</title>
<path fill="#ffa500" stroke="black" d="M815.5,-52C815.5,-52 746.5,-52 746.5,-52 740.5,-52 734.5,-46 734.5,-40 734.5,-40 734.5,-28 734.5,-28 734.5,-22 740.5,-16 746.5,-16 746.5,-16 815.5,-16 815.5,-16 821.5,-16 827.5,-22 827.5,-28 827.5,-28 827.5,-40 827.5,-40 827.5,-46 821.5,-52 815.5,-52"/>
<text text-anchor="middle" x="781" y="-37" font-family="Noto Sans CJK SC" font-size="10.00">Restart(delay&gt;0)</text>
<text text-anchor="middle" x="781" y="-26" font-family="Noto Sans CJK SC" font-size="10.00">→ Cooldown</text>
</g>
<!-- EngineDeath_Restart(0) -->
<g id="node5" class="node">
<title>EngineDeath_Restart(0)</title>
<path fill="#ffd700" stroke="black" d="M704,-52C704,-52 648,-52 648,-52 642,-52 636,-46 636,-40 636,-40 636,-28 636,-28 636,-22 642,-16 648,-16 648,-16 704,-16 704,-16 710,-16 716,-22 716,-28 716,-28 716,-40 716,-40 716,-46 710,-52 704,-52"/>
<text text-anchor="middle" x="676" y="-37" font-family="Noto Sans CJK SC" font-size="10.00">Restart(0)</text>
<text text-anchor="middle" x="676" y="-26" font-family="Noto Sans CJK SC" font-size="10.00">→ Recovering</text>
</g>
<!-- EngineDeath_Ignore/NoPolicy -->
<g id="node6" class="node">
<title>EngineDeath_Ignore/NoPolicy</title>
<path fill="#ff6b6b" stroke="black" d="M606,-52C606,-52 538,-52 538,-52 532,-52 526,-46 526,-40 526,-40 526,-28 526,-28 526,-22 532,-16 538,-16 538,-16 606,-16 606,-16 612,-16 618,-22 618,-28 618,-28 618,-40 618,-40 618,-46 612,-52 606,-52"/>
<text text-anchor="middle" x="572" y="-37" font-family="Noto Sans CJK SC" font-size="10.00">Ignore/NoPolicy</text>
<text text-anchor="middle" x="572" y="-26" font-family="Noto Sans CJK SC" font-size="10.00">→ NoSession</text>
</g>
<!-- ExecTimeout_Restart(delay&gt;0) -->
<g id="node7" class="node">
<title>ExecTimeout_Restart(delay&gt;0)</title>
<path fill="#ffa500" stroke="black" d="M495.5,-52C495.5,-52 426.5,-52 426.5,-52 420.5,-52 414.5,-46 414.5,-40 414.5,-40 414.5,-28 414.5,-28 414.5,-22 420.5,-16 426.5,-16 426.5,-16 495.5,-16 495.5,-16 501.5,-16 507.5,-22 507.5,-28 507.5,-28 507.5,-40 507.5,-40 507.5,-46 501.5,-52 495.5,-52"/>
<text text-anchor="middle" x="461" y="-37" font-family="Noto Sans CJK SC" font-size="10.00">Restart(delay&gt;0)</text>
<text text-anchor="middle" x="461" y="-26" font-family="Noto Sans CJK SC" font-size="10.00">→ Cooldown</text>
</g>
<!-- ExecTimeout_Restart(0) -->
<g id="node8" class="node">
<title>ExecTimeout_Restart(0)</title>
<path fill="#ffd700" stroke="black" d="M384,-52C384,-52 328,-52 328,-52 322,-52 316,-46 316,-40 316,-40 316,-28 316,-28 316,-22 322,-16 328,-16 328,-16 384,-16 384,-16 390,-16 396,-22 396,-28 396,-28 396,-40 396,-40 396,-46 390,-52 384,-52"/>
<text text-anchor="middle" x="356" y="-37" font-family="Noto Sans CJK SC" font-size="10.00">Restart(0)</text>
<text text-anchor="middle" x="356" y="-26" font-family="Noto Sans CJK SC" font-size="10.00">→ Recovering</text>
</g>
<!-- ExecTimeout_Ignore -->
<g id="node9" class="node">
<title>ExecTimeout_Ignore</title>
<path fill="#90ee90" stroke="black" d="M286,-52C286,-52 226,-52 226,-52 220,-52 214,-46 214,-40 214,-40 214,-28 214,-28 214,-22 220,-16 226,-16 226,-16 286,-16 286,-16 292,-16 298,-22 298,-28 298,-28 298,-40 298,-40 298,-46 292,-52 286,-52"/>
<text text-anchor="middle" x="256" y="-37" font-family="Noto Sans CJK SC" font-size="10.00">Ignore</text>
<text text-anchor="middle" x="256" y="-26" font-family="Noto Sans CJK SC" font-size="10.00">→ Active(保持)</text>
</g>
<!-- IdleTimeout_IdleClose -->
<g id="node10" class="node">
<title>IdleTimeout_IdleClose</title>
<path fill="#87ceeb" stroke="black" d="M183.5,-52C183.5,-52 130.5,-52 130.5,-52 124.5,-52 118.5,-46 118.5,-40 118.5,-40 118.5,-28 118.5,-28 118.5,-22 124.5,-16 130.5,-16 130.5,-16 183.5,-16 183.5,-16 189.5,-16 195.5,-22 195.5,-28 195.5,-28 195.5,-40 195.5,-40 195.5,-46 189.5,-52 183.5,-52"/>
<text text-anchor="middle" x="157" y="-37" font-family="Noto Sans CJK SC" font-size="10.00">IdleClose</text>
<text text-anchor="middle" x="157" y="-26" font-family="Noto Sans CJK SC" font-size="10.00">→ IdleClosed</text>
</g>
<!-- IdleTimeout_Ignore -->
<g id="node11" class="node">
<title>IdleTimeout_Ignore</title>
<path fill="#90ee90" stroke="black" d="M88,-52C88,-52 28,-52 28,-52 22,-52 16,-46 16,-40 16,-40 16,-28 16,-28 16,-22 22,-16 28,-16 28,-16 88,-16 88,-16 94,-16 100,-22 100,-28 100,-28 100,-40 100,-40 100,-46 94,-52 88,-52"/>
<text text-anchor="middle" x="58" y="-37" font-family="Noto Sans CJK SC" font-size="10.00">Ignore</text>
<text text-anchor="middle" x="58" y="-26" font-family="Noto Sans CJK SC" font-size="10.00">→ Active(保持)</text>
</g>
</g>
</svg>
