<?xml version="1.0" encoding="UTF-8" standalone="no"?>
<!DOCTYPE svg PUBLIC "-//W3C//DTD SVG 1.1//EN"
 "http://www.w3.org/Graphics/SVG/1.1/DTD/svg11.dtd">
<!-- Generated by graphviz version 2.43.0 (0)
 -->
<!-- Title: %3 Pages: 1 -->
<svg width="882pt" height="907pt"
 viewBox="0.00 0.00 423.31 435.25" xmlns="http://www.w3.org/2000/svg" xmlns:xlink="http://www.w3.org/1999/xlink">
<g id="graph0" class="graph" transform="scale(2.08 2.08) rotate(0) translate(4 431.25)">
<title>%3</title>
<polygon fill="white" stroke="transparent" points="-4,4 -4,-431.25 419.31,-431.25 419.31,4 -4,4"/>
<g id="clust1" class="cluster">
<title>cluster_recovery</title>
<path fill="#fff8dc" stroke="#ffa500" d="M120.31,-84.25C120.31,-84.25 334.31,-84.25 334.31,-84.25 340.31,-84.25 346.31,-90.25 346.31,-96.25 346.31,-96.25 346.31,-407.25 346.31,-407.25 346.31,-413.25 340.31,-419.25 334.31,-419.25 334.31,-419.25 120.31,-419.25 120.31,-419.25 114.31,-419.25 108.31,-413.25 108.31,-407.25 108.31,-407.25 108.31,-96.25 108.31,-96.25 108.31,-90.25 114.31,-84.25 120.31,-84.25"/>
<text text-anchor="middle" x="227.31" y="-404.05" font-family="Times,serif" font-size="14.00">异常恢复循环</text>
</g>
<!-- Init -->
<g id="node1" class="node">
<title>Init</title>
<ellipse fill="#e8e8e8" stroke="black" stroke-width="2" cx="49.31" cy="-276.25" rx="49.12" ry="18"/>
<text text-anchor="middle" x="49.31" y="-273.45" font-family="Noto Sans CJK SC" font-size="11.00">Uninitialized</text>
</g>
<!-- Recovering -->
<g id="node4" class="node">
<title>Recovering</title>
<path fill="#ffd700" stroke="black" stroke-width="2" d="M247.31,-211.25C247.31,-211.25 197.31,-211.25 197.31,-211.25 191.31,-211.25 185.31,-205.25 185.31,-199.25 185.31,-199.25 185.31,-187.25 185.31,-187.25 185.31,-181.25 191.31,-175.25 197.31,-175.25 197.31,-175.25 247.31,-175.25 247.31,-175.25 253.31,-175.25 259.31,-181.25 259.31,-187.25 259.31,-187.25 259.31,-199.25 259.31,-199.25 259.31,-205.25 253.31,-211.25 247.31,-211.25"/>
<text text-anchor="middle" x="222.31" y="-196.45" font-family="Noto Sans CJK SC" font-size="11.00">Recovering</text>
<text text-anchor="middle" x="222.31" y="-184.45" font-family="Noto Sans CJK SC" font-size="11.00">(恢复中)</text>
</g>
<!-- Init&#45;&gt;Recovering -->
<g id="edge1" class="edge">
<title>Init&#45;&gt;Recovering</title>
<path fill="none" stroke="black" stroke-width="2" d="M74.9,-260.62C91.81,-251.19 114.6,-238.93 135.31,-229.25 148.25,-223.21 162.53,-217.2 175.72,-211.91"/>
<polygon fill="black" stroke="black" stroke-width="2" points="177.09,-215.13 185.1,-208.2 174.51,-208.63 177.09,-215.13"/>
<text text-anchor="middle" x="150.31" y="-232.25" font-family="Noto Sans CJK SC" font-size="10.00">初始化</text>
</g>
<!-- Active -->
<g id="node2" class="node">
<title>Active</title>
<path fill="#90ee90" stroke="black" stroke-width="2" d="M296.81,-388.25C296.81,-388.25 251.81,-388.25 251.81,-388.25 245.81,-388.25 239.81,-382.25 239.81,-376.25 239.81,-376.25 239.81,-364.25 239.81,-364.25 239.81,-358.25 245.81,-352.25 251.81,-352.25 251.81,-352.25 296.81,-352.25 296.81,-352.25 302.81,-352.25 308.81,-358.25 308.81,-364.25 308.81,-364.25 308.81,-376.25 308.81,-376.25 308.81,-382.25 302.81,-388.25 296.81,-388.25"/>
<text text-anchor="middle" x="274.31" y="-373.45" font-family="Noto Sans CJK SC" font-size="11.00">Active</text>
<text text-anchor="middle" x="274.31" y="-361.45" font-family="Noto Sans CJK SC" font-size="11.00">(正常服务)</text>
</g>
<!-- Cooldown -->
<g id="node3" class="node">
<title>Cooldown</title>
<path fill="#ffa500" stroke="black" stroke-width="2" d="M173.81,-294.25C173.81,-294.25 128.81,-294.25 128.81,-294.25 122.81,-294.25 116.81,-288.25 116.81,-282.25 116.81,-282.25 116.81,-270.25 116.81,-270.25 116.81,-264.25 122.81,-258.25 128.81,-258.25 128.81,-258.25 173.81,-258.25 173.81,-258.25 179.81,-258.25 185.81,-264.25 185.81,-270.25 185.81,-270.25 185.81,-282.25 185.81,-282.25 185.81,-288.25 179.81,-294.25 173.81,-294.25"/>
<text text-anchor="middle" x="151.31" y="-279.45" font-family="Noto Sans CJK SC" font-size="11.00">Cooldown</text>
<text text-anchor="middle" x="151.31" y="-267.45" font-family="Noto Sans CJK SC" font-size="11.00">(冷却等待)</text>
</g>
<!-- Active&#45;&gt;Cooldown -->
<g id="edge3" class="edge">
<title>Active&#45;&gt;Cooldown</title>
<path fill="none" stroke="red" stroke-width="2" stroke-dasharray="5,2" d="M239.56,-365.36C202.68,-360.43 148.01,-350.55 135.31,-334.25 128.49,-325.5 130.27,-314 134.6,-303.61"/>
<polygon fill="red" stroke="red" stroke-width="2" points="137.81,-305.02 139.13,-294.51 131.54,-301.9 137.81,-305.02"/>
<text text-anchor="middle" x="190.31" y="-326.25" font-family="Noto Sans CJK SC" font-size="10.00">异常发生</text>
<text text-anchor="middle" x="190.31" y="-315.25" font-family="Noto Sans CJK SC" font-size="10.00">(EngineDeath/Timeout)</text>
</g>
<!-- Closed -->
<g id="node6" class="node">
<title>Closed</title>
<ellipse fill="#696969" stroke="black" stroke-width="2" cx="314.31" cy="-22.63" rx="41.02" ry="22.76"/>
<text text-anchor="middle" x="314.31" y="-25.83" font-family="Noto Sans CJK SC" font-size="11.00" fill="white">Closed</text>
<text text-anchor="middle" x="314.31" y="-13.83" font-family="Noto Sans CJK SC" font-size="11.00" fill="white">(已关闭)</text>
</g>
<!-- Active&#45;&gt;Closed -->
<g id="edge7" class="edge">
<title>Active&#45;&gt;Closed</title>
<path fill="none" stroke="black" stroke-width="2" stroke-dasharray="1,5" d="M308.83,-352.27C334.93,-336.73 366.31,-311.02 366.31,-277.25 366.31,-277.25 366.31,-277.25 366.31,-109.25 366.31,-87.33 353.71,-66.24 340.91,-50.48"/>
<polygon fill="black" stroke="black" stroke-width="2" points="343.44,-48.05 334.27,-42.74 338.13,-52.61 343.44,-48.05"/>
<text text-anchor="middle" x="390.81" y="-190.75" font-family="Noto Sans CJK SC" font-size="10.00">Shutdown</text>
</g>
<!-- Cooldown&#45;&gt;Recovering -->
<g id="edge4" class="edge">
<title>Cooldown&#45;&gt;Recovering</title>
<path fill="none" stroke="gold" stroke-width="2" d="M158.99,-258.05C163.54,-248.93 169.88,-237.87 177.31,-229.25 180.7,-225.33 184.59,-221.54 188.63,-218.01"/>
<polygon fill="gold" stroke="gold" stroke-width="2" points="190.99,-220.59 196.49,-211.53 186.54,-215.19 190.99,-220.59"/>
<text text-anchor="middle" x="197.31" y="-232.25" font-family="Noto Sans CJK SC" font-size="10.00">冷却结束</text>
</g>
<!-- Recovering&#45;&gt;Active -->
<g id="edge2" class="edge">
<title>Recovering&#45;&gt;Active</title>
<path fill="none" stroke="green" stroke-width="2" d="M222.99,-211.26C224.18,-231.46 227.44,-265.99 236.31,-294.25 236.52,-294.92 250.11,-321.69 260.97,-343.06"/>
<polygon fill="green" stroke="green" stroke-width="2" points="257.91,-344.76 265.57,-352.08 264.15,-341.58 257.91,-344.76"/>
<text text-anchor="middle" x="256.31" y="-273.75" font-family="Noto Sans CJK SC" font-size="10.00">连接成功</text>
</g>
<!-- Recovering&#45;&gt;Active -->
<g id="edge5" class="edge">
<title>Recovering&#45;&gt;Active</title>
<path fill="none" stroke="green" stroke-width="2" d="M242.58,-211.28C254.92,-223.03 269.57,-239.82 276.31,-258.25 286.25,-285.45 283.84,-318.94 280.14,-341.99"/>
<polygon fill="green" stroke="green" stroke-width="2" points="276.65,-341.62 278.34,-352.08 283.54,-342.85 276.65,-341.62"/>
<text text-anchor="middle" x="302.31" y="-273.75" font-family="Noto Sans CJK SC" font-size="10.00">恢复成功</text>
</g>
<!-- NoSession -->
<g id="node5" class="node">
<title>NoSession</title>
<path fill="#ff6b6b" stroke="black" stroke-width="2" d="M285.81,-128.25C285.81,-128.25 238.81,-128.25 238.81,-128.25 232.81,-128.25 226.81,-122.25 226.81,-116.25 226.81,-116.25 226.81,-104.25 226.81,-104.25 226.81,-98.25 232.81,-92.25 238.81,-92.25 238.81,-92.25 285.81,-92.25 285.81,-92.25 291.81,-92.25 297.81,-98.25 297.81,-104.25 297.81,-104.25 297.81,-116.25 297.81,-116.25 297.81,-122.25 291.81,-128.25 285.81,-128.25"/>
<text text-anchor="middle" x="262.31" y="-113.45" font-family="Noto Sans CJK SC" font-size="11.00">NoSession</text>
<text text-anchor="middle" x="262.31" y="-101.45" font-family="Noto Sans CJK SC" font-size="11.00">(无会话)</text>
</g>
<!-- Recovering&#45;&gt;NoSession -->
<g id="edge6" class="edge">
<title>Recovering&#45;&gt;NoSession</title>
<path fill="none" stroke="red" stroke-width="2" d="M230.79,-175.08C236.15,-164.23 243.18,-150 249.24,-137.73"/>
<polygon fill="red" stroke="red" stroke-width="2" points="252.55,-138.92 253.84,-128.41 246.27,-135.82 252.55,-138.92"/>
<text text-anchor="middle" x="264.31" y="-149.25" font-family="Noto Sans CJK SC" font-size="10.00">恢复失败</text>
</g>
<!-- NoSession&#45;&gt;Closed -->
<g id="edge8" class="edge">
<title>NoSession&#45;&gt;Closed</title>
<path fill="none" stroke="black" stroke-width="2" stroke-dasharray="1,5" d="M272.83,-91.93C279.63,-80.73 288.65,-65.88 296.54,-52.88"/>
<polygon fill="black" stroke="black" stroke-width="2" points="299.59,-54.61 301.79,-44.25 293.6,-50.98 299.59,-54.61"/>
<text text-anchor="middle" x="313.81" y="-66.25" font-family="Noto Sans CJK SC" font-size="10.00">Shutdown</text>
</g>
</g>
</svg>
