<?xml version="1.0" encoding="UTF-8" standalone="no"?>
<!DOCTYPE svg PUBLIC "-//W3C//DTD SVG 1.1//EN"
 "http://www.w3.org/Graphics/SVG/1.1/DTD/svg11.dtd">
<!-- Generated by graphviz version 2.43.0 (0)
 -->
<!-- Title: %3 Pages: 1 -->
<svg width="2042pt" height="1000pt"
 viewBox="0.00 0.00 980.31 480.00" xmlns="http://www.w3.org/2000/svg" xmlns:xlink="http://www.w3.org/1999/xlink">
<g id="graph0" class="graph" transform="scale(2.08 2.08) rotate(0) translate(4 476)">
<title>%3</title>
<polygon fill="white" stroke="transparent" points="-4,4 -4,-476 976.31,-476 976.31,4 -4,4"/>
<g id="clust1" class="cluster">
<title>cluster_legend</title>
<path fill="#f0f0f0" stroke="black" d="M120.31,-389C120.31,-389 576.31,-389 576.31,-389 582.31,-389 588.31,-395 588.31,-401 588.31,-401 588.31,-452 588.31,-452 588.31,-458 582.31,-464 576.31,-464 576.31,-464 120.31,-464 120.31,-464 114.31,-464 108.31,-458 108.31,-452 108.31,-452 108.31,-401 108.31,-401 108.31,-395 114.31,-389 120.31,-389"/>
<text text-anchor="middle" x="348.31" y="-448.8" font-family="Times,serif" font-size="14.00">图例</text>
</g>
<!-- Uninitialized -->
<g id="node1" class="node">
<title>Uninitialized</title>
<ellipse fill="#e8e8e8" stroke="#e8e8e8" cx="49.31" cy="-415" rx="49.12" ry="18"/>
<text text-anchor="middle" x="49.31" y="-412.2" font-family="Noto Sans CJK SC" font-size="11.00">Uninitialized</text>
</g>
<!-- Recovering -->
<g id="node3" class="node">
<title>Recovering</title>
<path fill="#ffd700" stroke="#ffd700" d="M322.31,-341C322.31,-341 272.31,-341 272.31,-341 266.31,-341 260.31,-335 260.31,-329 260.31,-329 260.31,-317 260.31,-317 260.31,-311 266.31,-305 272.31,-305 272.31,-305 322.31,-305 322.31,-305 328.31,-305 334.31,-311 334.31,-317 334.31,-317 334.31,-329 334.31,-329 334.31,-335 328.31,-341 322.31,-341"/>
<text text-anchor="middle" x="297.31" y="-320.2" font-family="Noto Sans CJK SC" font-size="11.00">Recovering</text>
</g>
<!-- Uninitialized&#45;&gt;Recovering -->
<g id="edge1" class="edge">
<title>Uninitialized&#45;&gt;Recovering</title>
<path fill="none" stroke="black" stroke-width="2" d="M78.19,-400.21C86.54,-396.4 95.72,-392.39 104.31,-389 153.58,-369.56 211.28,-350.62 250.66,-338.24"/>
<polygon fill="black" stroke="black" stroke-width="2" points="251.77,-341.56 260.27,-335.24 249.68,-334.88 251.77,-341.56"/>
<text text-anchor="middle" x="224.81" y="-371.8" font-family="Noto Sans CJK SC" font-size="9.00">Init()</text>
<text text-anchor="middle" x="224.81" y="-361.8" font-family="Noto Sans CJK SC" font-size="9.00">BeginSessionOpen()</text>
</g>
<!-- Closed -->
<g id="node7" class="node">
<title>Closed</title>
<ellipse fill="#696969" stroke="#696969" cx="405.31" cy="-18" rx="30.84" ry="18"/>
<text text-anchor="middle" x="405.31" y="-15.2" font-family="Noto Sans CJK SC" font-size="11.00" fill="white">Closed</text>
</g>
<!-- Uninitialized&#45;&gt;Closed -->
<g id="edge12" class="edge">
<title>Uninitialized&#45;&gt;Closed</title>
<path fill="none" stroke="black" stroke-dasharray="1,5" d="M44.42,-396.91C39.72,-378.92 33.31,-349.71 33.31,-324 33.31,-324 33.31,-324 33.31,-98 33.31,-30.94 267.53,-20.56 364.27,-19.14"/>
<polygon fill="black" stroke="black" points="364.59,-22.63 374.55,-19.01 364.51,-15.63 364.59,-22.63"/>
<text text-anchor="middle" x="55.81" y="-219.1" font-family="Noto Sans CJK SC" font-size="8.00">Shutdown()</text>
</g>
<!-- Active -->
<g id="node2" class="node">
<title>Active</title>
<path fill="#90ee90" stroke="#90ee90" stroke-width="3" d="M406.31,-239C406.31,-239 376.31,-239 376.31,-239 370.31,-239 364.31,-233 364.31,-227 364.31,-227 364.31,-215 364.31,-215 364.31,-209 370.31,-203 376.31,-203 376.31,-203 406.31,-203 406.31,-203 412.31,-203 418.31,-209 418.31,-215 418.31,-215 418.31,-227 418.31,-227 418.31,-233 412.31,-239 406.31,-239"/>
<text text-anchor="middle" x="391.31" y="-218.2" font-family="Noto Sans CJK SC" font-size="11.00">Active</text>
</g>
<!-- Active&#45;&gt;Recovering -->
<g id="edge4" class="edge">
<title>Active&#45;&gt;Recovering</title>
<path fill="none" stroke="red" stroke-dasharray="5,2" d="M364.29,-228.01C349.05,-231.36 329.64,-235.53 312.31,-239 290.81,-243.31 229.33,-240.14 215.31,-257 206.78,-267.25 207.96,-275.87 215.31,-287 223.49,-299.38 237.04,-307.4 250.8,-312.58"/>
<polygon fill="red" stroke="red" points="249.7,-315.91 260.29,-315.74 251.9,-309.26 249.7,-315.91"/>
<text text-anchor="middle" x="270.81" y="-279.8" font-family="Noto Sans CJK SC" font-size="9.00">EngineDeath</text>
<text text-anchor="middle" x="270.81" y="-269.8" font-family="Noto Sans CJK SC" font-size="9.00">onEngineDeath=Restart(0)</text>
<text text-anchor="middle" x="270.81" y="-259.8" font-family="Noto Sans CJK SC" font-size="9.00">(立即恢复)</text>
</g>
<!-- Cooldown -->
<g id="node4" class="node">
<title>Cooldown</title>
<path fill="#ffa500" stroke="#ffa500" d="M258.81,-117C258.81,-117 213.81,-117 213.81,-117 207.81,-117 201.81,-111 201.81,-105 201.81,-105 201.81,-93 201.81,-93 201.81,-87 207.81,-81 213.81,-81 213.81,-81 258.81,-81 258.81,-81 264.81,-81 270.81,-87 270.81,-93 270.81,-93 270.81,-105 270.81,-105 270.81,-111 264.81,-117 258.81,-117"/>
<text text-anchor="middle" x="236.31" y="-96.2" font-family="Noto Sans CJK SC" font-size="11.00">Cooldown</text>
</g>
<!-- Active&#45;&gt;Cooldown -->
<g id="edge3" class="edge">
<title>Active&#45;&gt;Cooldown</title>
<path fill="none" stroke="red" stroke-dasharray="5,2" d="M363.96,-213.74C348.78,-210.37 329.54,-206.24 312.31,-203 287.53,-198.35 216.66,-204.19 200.31,-185 185.9,-168.09 191.66,-155.47 200.31,-135 201.87,-131.31 204.03,-127.82 206.52,-124.57"/>
<polygon fill="red" stroke="red" points="209.2,-126.82 213.25,-117.03 203.98,-122.16 209.2,-126.82"/>
<text text-anchor="middle" x="269.81" y="-177.8" font-family="Noto Sans CJK SC" font-size="9.00">EngineDeath</text>
<text text-anchor="middle" x="269.81" y="-167.8" font-family="Noto Sans CJK SC" font-size="9.00">onEngineDeath=Restart(delay&gt;0)</text>
<text text-anchor="middle" x="269.81" y="-157.8" font-family="Noto Sans CJK SC" font-size="9.00">• CloseLiveSession()</text>
<text text-anchor="middle" x="269.81" y="-147.8" font-family="Noto Sans CJK SC" font-size="9.00">• ResolveAllPending(Crashed)</text>
<text text-anchor="middle" x="269.81" y="-137.8" font-family="Noto Sans CJK SC" font-size="9.00">• StartRecovery(delayMs)</text>
</g>
<!-- Active&#45;&gt;Cooldown -->
<g id="edge6" class="edge">
<title>Active&#45;&gt;Cooldown</title>
<path fill="none" stroke="orange" stroke-dasharray="5,2" d="M372.71,-202.97C367.56,-197.59 362.3,-191.37 358.31,-185 345.69,-164.85 356.42,-151.51 339.31,-135 323.61,-119.85 301.12,-111.25 281.15,-106.37"/>
<polygon fill="orange" stroke="orange" points="281.81,-102.93 271.29,-104.2 280.31,-109.77 281.81,-102.93"/>
<text text-anchor="middle" x="415.81" y="-162.8" font-family="Noto Sans CJK SC" font-size="9.00">ExecTimeout</text>
<text text-anchor="middle" x="415.81" y="-152.8" font-family="Noto Sans CJK SC" font-size="9.00">onFailure=Restart(delayMs)</text>
</g>
<!-- NoSession -->
<g id="node5" class="node">
<title>NoSession</title>
<path fill="#ff6b6b" stroke="#ff6b6b" d="M707.81,-117C707.81,-117 660.81,-117 660.81,-117 654.81,-117 648.81,-111 648.81,-105 648.81,-105 648.81,-93 648.81,-93 648.81,-87 654.81,-81 660.81,-81 660.81,-81 707.81,-81 707.81,-81 713.81,-81 719.81,-87 719.81,-93 719.81,-93 719.81,-105 719.81,-105 719.81,-111 713.81,-117 707.81,-117"/>
<text text-anchor="middle" x="684.31" y="-96.2" font-family="Noto Sans CJK SC" font-size="11.00">NoSession</text>
</g>
<!-- Active&#45;&gt;NoSession -->
<g id="edge5" class="edge">
<title>Active&#45;&gt;NoSession</title>
<path fill="none" stroke="red" stroke-dasharray="1,5" d="M418.55,-220.57C459.93,-220.35 540.07,-215.54 599.31,-185 626.62,-170.92 650.63,-144.93 666.1,-125.37"/>
<polygon fill="red" stroke="red" points="669.08,-127.24 672.39,-117.18 663.53,-122.98 669.08,-127.24"/>
<text text-anchor="middle" x="705.81" y="-167.8" font-family="Noto Sans CJK SC" font-size="9.00">EngineDeath</text>
<text text-anchor="middle" x="705.81" y="-157.8" font-family="Noto Sans CJK SC" font-size="9.00">onEngineDeath=Ignore</text>
<text text-anchor="middle" x="705.81" y="-147.8" font-family="Noto Sans CJK SC" font-size="9.00">或无策略</text>
</g>
<!-- IdleClosed -->
<g id="node6" class="node">
<title>IdleClosed</title>
<path fill="#87ceeb" stroke="#87ceeb" d="M522.31,-117C522.31,-117 476.31,-117 476.31,-117 470.31,-117 464.31,-111 464.31,-105 464.31,-105 464.31,-93 464.31,-93 464.31,-87 470.31,-81 476.31,-81 476.31,-81 522.31,-81 522.31,-81 528.31,-81 534.31,-87 534.31,-93 534.31,-93 534.31,-105 534.31,-105 534.31,-111 528.31,-117 522.31,-117"/>
<text text-anchor="middle" x="499.31" y="-96.2" font-family="Noto Sans CJK SC" font-size="11.00">IdleClosed</text>
</g>
<!-- Active&#45;&gt;IdleClosed -->
<g id="edge7" class="edge">
<title>Active&#45;&gt;IdleClosed</title>
<path fill="none" stroke="blue" stroke-dasharray="5,2" d="M418.32,-215.61C437.43,-211.11 462.24,-202.23 477.31,-185 491.24,-169.08 496.53,-145.44 498.46,-127.14"/>
<polygon fill="blue" stroke="blue" points="501.95,-127.31 499.24,-117.07 494.98,-126.77 501.95,-127.31"/>
<text text-anchor="middle" x="532.81" y="-162.8" font-family="Noto Sans CJK SC" font-size="9.00">idle超时</text>
<text text-anchor="middle" x="532.81" y="-152.8" font-family="Noto Sans CJK SC" font-size="9.00">onIdle=IdleClose</text>
</g>
<!-- Active&#45;&gt;Closed -->
<g id="edge13" class="edge">
<title>Active&#45;&gt;Closed</title>
<path fill="none" stroke="black" stroke-dasharray="1,5" d="M418.63,-218.79C464.12,-216.14 552.28,-208.09 571.31,-185 601.76,-148.06 575.15,-116.74 543.31,-81 517.33,-51.84 474.98,-35.64 444.03,-27.18"/>
<polygon fill="black" stroke="black" points="444.57,-23.7 434.01,-24.6 442.83,-30.48 444.57,-23.7"/>
<text text-anchor="middle" x="593.81" y="-97.1" font-family="Noto Sans CJK SC" font-size="8.00">Shutdown()</text>
</g>
<!-- Recovering&#45;&gt;Active -->
<g id="edge2" class="edge">
<title>Recovering&#45;&gt;Active</title>
<path fill="none" stroke="green" stroke-width="2" d="M313.68,-304.58C328.78,-288.52 351.34,-264.52 368.26,-246.52"/>
<polygon fill="green" stroke="green" stroke-width="2" points="370.82,-248.9 375.12,-239.22 365.72,-244.11 370.82,-248.9"/>
<text text-anchor="middle" x="403.81" y="-274.8" font-family="Noto Sans CJK SC" font-size="9.00">OpenSession() 成功</text>
<text text-anchor="middle" x="403.81" y="-264.8" font-family="Noto Sans CJK SC" font-size="9.00">FinalizeSessionOpen()</text>
</g>
<!-- Recovering&#45;&gt;NoSession -->
<g id="edge9" class="edge">
<title>Recovering&#45;&gt;NoSession</title>
<path fill="none" stroke="red" d="M334.52,-321.98C433.47,-321.51 701.08,-317.39 783.31,-287 817,-274.55 832.13,-271.06 848.31,-239 878.11,-179.94 788.03,-136.03 729.78,-114.6"/>
<polygon fill="red" stroke="red" points="730.62,-111.18 720.02,-111.11 728.26,-117.77 730.62,-111.18"/>
<text text-anchor="middle" x="912.81" y="-223.8" font-family="Noto Sans CJK SC" font-size="9.00">OpenSession() 失败</text>
<text text-anchor="middle" x="912.81" y="-213.8" font-family="Noto Sans CJK SC" font-size="9.00">HandleSessionOpenFailure()</text>
</g>
<!-- Recovering&#45;&gt;Closed -->
<g id="edge14" class="edge">
<title>Recovering&#45;&gt;Closed</title>
<path fill="none" stroke="black" stroke-dasharray="1,5" d="M259.89,-313.14C242.12,-307.65 221.32,-299.26 205.31,-287 145.65,-241.33 100.18,-203.39 131.31,-135 171.22,-47.31 298.43,-25.82 364.54,-20.62"/>
<polygon fill="black" stroke="black" points="364.87,-24.1 374.6,-19.91 364.38,-17.12 364.87,-24.1"/>
<text text-anchor="middle" x="153.81" y="-158.1" font-family="Noto Sans CJK SC" font-size="8.00">Shutdown()</text>
</g>
<!-- Cooldown&#45;&gt;Recovering -->
<g id="edge8" class="edge">
<title>Cooldown&#45;&gt;Recovering</title>
<path fill="none" stroke="gold" stroke-width="2" d="M203.09,-117.1C196.74,-121.98 190.95,-127.94 187.31,-135 177.14,-154.76 179.41,-164.23 187.31,-185 202.53,-225.02 224.68,-223.47 251.31,-257 261.34,-269.63 271.79,-284.25 280.18,-296.42"/>
<polygon fill="gold" stroke="gold" stroke-width="2" points="277.37,-298.51 285.9,-304.79 283.15,-294.56 277.37,-298.51"/>
<text text-anchor="middle" x="270.31" y="-223.8" font-family="Noto Sans CJK SC" font-size="9.00">CooldownExpired</text>
<text text-anchor="middle" x="270.31" y="-213.8" font-family="Noto Sans CJK SC" font-size="9.00">或新请求触发</text>
</g>
<!-- Cooldown&#45;&gt;Closed -->
<g id="edge15" class="edge">
<title>Cooldown&#45;&gt;Closed</title>
<path fill="none" stroke="black" stroke-dasharray="1,5" d="M270.92,-81.82C300.76,-67.87 343.55,-47.87 372.77,-34.21"/>
<polygon fill="black" stroke="black" points="374.55,-37.24 382.13,-29.84 371.59,-30.9 374.55,-37.24"/>
<text text-anchor="middle" x="347.81" y="-56.6" font-family="Noto Sans CJK SC" font-size="8.00">Shutdown()</text>
</g>
<!-- NoSession&#45;&gt;Recovering -->
<g id="edge10" class="edge">
<title>NoSession&#45;&gt;Recovering</title>
<path fill="none" stroke="purple" stroke-dasharray="5,2" d="M664.81,-117.2C660.18,-122.41 655.85,-128.5 653.31,-135 649.11,-145.77 658.26,-229.76 651.31,-239 614.71,-287.66 432.26,-310.11 344.55,-318.23"/>
<polygon fill="purple" stroke="purple" points="343.98,-314.76 334.34,-319.15 344.61,-321.74 343.98,-314.76"/>
<text text-anchor="middle" x="709.81" y="-223.8" font-family="Noto Sans CJK SC" font-size="9.00">RequestExternalRecovery()</text>
<text text-anchor="middle" x="709.81" y="-213.8" font-family="Noto Sans CJK SC" font-size="9.00">外部触发恢复</text>
</g>
<!-- NoSession&#45;&gt;Closed -->
<g id="edge16" class="edge">
<title>NoSession&#45;&gt;Closed</title>
<path fill="none" stroke="black" stroke-dasharray="1,5" d="M656.53,-80.92C640.36,-71.68 619.29,-60.8 599.31,-54 547.86,-36.49 485.58,-27.23 445.72,-22.73"/>
<polygon fill="black" stroke="black" points="445.91,-19.23 435.59,-21.64 445.15,-26.19 445.91,-19.23"/>
<text text-anchor="middle" x="642.81" y="-56.6" font-family="Noto Sans CJK SC" font-size="8.00">Shutdown()</text>
</g>
<!-- IdleClosed&#45;&gt;Recovering -->
<g id="edge11" class="edge">
<title>IdleClosed&#45;&gt;Recovering</title>
<path fill="none" stroke="green" stroke-width="2" d="M534.43,-114.83C551.95,-122.58 569.93,-131.22 572.31,-135 584.15,-153.81 581.55,-164.79 572.31,-185 543.47,-248.04 516.24,-255.85 454.31,-287 419.87,-304.33 376.91,-313.14 344.64,-317.59"/>
<polygon fill="green" stroke="green" stroke-width="2" points="344.04,-314.14 334.57,-318.89 344.93,-321.08 344.04,-314.14"/>
<text text-anchor="middle" x="604.81" y="-223.8" font-family="Noto Sans CJK SC" font-size="9.00">新请求</text>
<text text-anchor="middle" x="604.81" y="-213.8" font-family="Noto Sans CJK SC" font-size="9.00">EnsureLiveSession()</text>
</g>
<!-- IdleClosed&#45;&gt;Closed -->
<g id="edge17" class="edge">
<title>IdleClosed&#45;&gt;Closed</title>
<path fill="none" stroke="black" stroke-dasharray="1,5" d="M478.91,-80.86C464.61,-68.84 445.4,-52.69 430.19,-39.91"/>
<polygon fill="black" stroke="black" points="432.12,-36.96 422.21,-33.2 427.62,-42.32 432.12,-36.96"/>
<text text-anchor="middle" x="476.81" y="-56.6" font-family="Noto Sans CJK SC" font-size="8.00">Shutdown()</text>
</g>
<!-- legend_init -->
<g id="node8" class="node">
<title>legend_init</title>
<ellipse fill="#e8e8e8" stroke="black" cx="540.31" cy="-415" rx="39.88" ry="18"/>
<text text-anchor="middle" x="540.31" y="-412.2" font-family="Noto Sans CJK SC" font-size="11.00">初始/终态</text>
</g>
<!-- legend_normal -->
<g id="node9" class="node">
<title>legend_normal</title>
<path fill="#90ee90" stroke="black" d="M470.31,-433C470.31,-433 432.31,-433 432.31,-433 426.31,-433 420.31,-427 420.31,-421 420.31,-421 420.31,-409 420.31,-409 420.31,-403 426.31,-397 432.31,-397 432.31,-397 470.31,-397 470.31,-397 476.31,-397 482.31,-403 482.31,-409 482.31,-409 482.31,-421 482.31,-421 482.31,-427 476.31,-433 470.31,-433"/>
<text text-anchor="middle" x="451.31" y="-412.2" font-family="Noto Sans CJK SC" font-size="11.00">正常运行</text>
</g>
<!-- legend_recover -->
<g id="node10" class="node">
<title>legend_recover</title>
<path fill="#ffd700" stroke="black" d="M390.31,-433C390.31,-433 360.31,-433 360.31,-433 354.31,-433 348.31,-427 348.31,-421 348.31,-421 348.31,-409 348.31,-409 348.31,-403 354.31,-397 360.31,-397 360.31,-397 390.31,-397 390.31,-397 396.31,-397 402.31,-403 402.31,-409 402.31,-409 402.31,-421 402.31,-421 402.31,-427 396.31,-433 390.31,-433"/>
<text text-anchor="middle" x="375.31" y="-412.2" font-family="Noto Sans CJK SC" font-size="11.00">恢复中</text>
</g>
<!-- legend_wait -->
<g id="node11" class="node">
<title>legend_wait</title>
<path fill="#ffa500" stroke="black" d="M318.31,-433C318.31,-433 288.31,-433 288.31,-433 282.31,-433 276.31,-427 276.31,-421 276.31,-421 276.31,-409 276.31,-409 276.31,-403 282.31,-397 288.31,-397 288.31,-397 318.31,-397 318.31,-397 324.31,-397 330.31,-403 330.31,-409 330.31,-409 330.31,-421 330.31,-421 330.31,-427 324.31,-433 318.31,-433"/>
<text text-anchor="middle" x="303.31" y="-412.2" font-family="Noto Sans CJK SC" font-size="11.00">等待中</text>
</g>
<!-- legend_error -->
<g id="node12" class="node">
<title>legend_error</title>
<path fill="#ff6b6b" stroke="black" d="M246.31,-433C246.31,-433 208.31,-433 208.31,-433 202.31,-433 196.31,-427 196.31,-421 196.31,-421 196.31,-409 196.31,-409 196.31,-403 202.31,-397 208.31,-397 208.31,-397 246.31,-397 246.31,-397 252.31,-397 258.31,-403 258.31,-409 258.31,-409 258.31,-421 258.31,-421 258.31,-427 252.31,-433 246.31,-433"/>
<text text-anchor="middle" x="227.31" y="-412.2" font-family="Noto Sans CJK SC" font-size="11.00">错误状态</text>
</g>
<!-- legend_idle -->
<g id="node13" class="node">
<title>legend_idle</title>
<path fill="#87ceeb" stroke="black" d="M166.31,-433C166.31,-433 128.31,-433 128.31,-433 122.31,-433 116.31,-427 116.31,-421 116.31,-421 116.31,-409 116.31,-409 116.31,-403 122.31,-397 128.31,-397 128.31,-397 166.31,-397 166.31,-397 172.31,-397 178.31,-403 178.31,-409 178.31,-409 178.31,-421 178.31,-421 178.31,-427 172.31,-433 166.31,-433"/>
<text text-anchor="middle" x="147.31" y="-412.2" font-family="Noto Sans CJK SC" font-size="11.00">空闲关闭</text>
</g>
</g>
</svg>
