<?xml version="1.0" encoding="UTF-8" standalone="no"?>
<!DOCTYPE svg PUBLIC "-//W3C//DTD SVG 1.1//EN"
 "http://www.w3.org/Graphics/SVG/1.1/DTD/svg11.dtd">
<!-- Generated by graphviz version 2.43.0 (0)
 -->
<!-- Title: rpc_client_default_state_machine Pages: 1 -->
<svg width="1487pt" height="742pt"
 viewBox="0.00 0.00 1486.78 742.19" xmlns="http://www.w3.org/2000/svg" xmlns:xlink="http://www.w3.org/1999/xlink">
<g id="graph0" class="graph" transform="scale(1 1) rotate(0) translate(25.2 716.99)">
<title>rpc_client_default_state_machine</title>
<polygon fill="#f7f8fa" stroke="transparent" points="-25.2,25.2 -25.2,-716.99 1461.58,-716.99 1461.58,25.2 -25.2,25.2"/>
<text text-anchor="middle" x="718.19" y="-671.79" font-family="Noto Sans CJK SC" font-size="20.00">RpcClient 生命周期状态机</text>
<!-- uninitialized&#45;&gt;recovering -->
<g id="edge1" class="edge">
<title>uninitialized&#45;&gt;recovering</title>
<path fill="none" stroke="#2563eb" stroke-width="1.8" d="M155.01,-623.29C194.49,-623.29 242.44,-623.29 282.3,-623.29"/>
<polygon fill="#2563eb" stroke="#2563eb" stroke-width="1.8" points="282.42,-626.09 290.42,-623.29 282.42,-620.49 282.42,-626.09"/>
<text text-anchor="middle" x="220.13" y="-626.29" font-family="Noto Sans CJK SC" font-size="10.00">1</text>
</g>
<!-- recovering&#45;&gt;active -->
<g id="edge2" class="edge">
<title>recovering&#45;&gt;active</title>
<path fill="none" stroke="#059669" stroke-width="1.8" d="M434.63,-623.29C488.42,-623.29 562.5,-623.29 621.54,-623.29"/>
<polygon fill="#059669" stroke="#059669" stroke-width="1.8" points="621.76,-626.09 629.76,-623.29 621.76,-620.49 621.76,-626.09"/>
<text text-anchor="middle" x="528.86" y="-626.29" font-family="Noto Sans CJK SC" font-size="10.00">2</text>
</g>
<!-- recovering&#45;&gt;no_session -->
<g id="edge3" class="edge">
<title>recovering:s&#45;&gt;no_session:n</title>
<path fill="none" stroke="#dc2626" stroke-width="1.8" d="M362.53,-584.29C370.23,-584.29 371.34,-484.93 365.87,-456.21"/>
<polygon fill="#dc2626" stroke="#dc2626" stroke-width="1.8" points="368.28,-454.75 362.53,-448.52 363.15,-456.98 368.28,-454.75"/>
<text text-anchor="middle" x="366.28" y="-519.49" font-family="Noto Sans CJK SC" font-size="10.00">3</text>
</g>
<!-- active&#45;&gt;cooldown -->
<g id="edge6" class="edge">
<title>active&#45;&gt;cooldown</title>
<path fill="none" stroke="#ea580c" stroke-width="1.8" d="M808.06,-623.29C864.99,-623.29 939.03,-623.29 998.76,-623.29"/>
<polygon fill="#ea580c" stroke="#ea580c" stroke-width="1.8" points="999.09,-626.09 1007.09,-623.29 999.09,-620.49 999.09,-626.09"/>
<text text-anchor="middle" x="904.79" y="-626.29" font-family="Noto Sans CJK SC" font-size="10.00">6</text>
</g>
<!-- active&#45;&gt;closed -->
<g id="edge10" class="edge">
<title>active&#45;&gt;closed</title>
<path fill="none" stroke="#9ca3af" stroke-width="1.8" stroke-dasharray="1,5" d="M807.85,-604.69C905.18,-586.91 1065.63,-565.06 1203.3,-581.59 1236.88,-585.63 1273.38,-593.96 1304.01,-602.12"/>
<polygon fill="#9ca3af" stroke="#9ca3af" stroke-width="1.8" points="1303.62,-604.92 1312.07,-604.31 1305.08,-599.51 1303.62,-604.92"/>
<text text-anchor="middle" x="1053.76" y="-568.34" font-family="Noto Sans CJK SC" font-size="10.00">10</text>
</g>
<!-- active&#45;&gt;idle_closed -->
<g id="edge8" class="edge">
<title>active:s&#45;&gt;idle_closed:n</title>
<path fill="none" stroke="#0284c7" stroke-width="1.8" d="M718.81,-584.29C718.81,-584.29 718.81,-485.84 718.81,-456.61"/>
<polygon fill="#0284c7" stroke="#0284c7" stroke-width="1.8" points="721.61,-456.52 718.81,-448.52 716.01,-456.52 721.61,-456.52"/>
<text text-anchor="middle" x="715.81" y="-519.28" font-family="Noto Sans CJK SC" font-size="10.00">8</text>
</g>
<!-- cooldown&#45;&gt;recovering -->
<g id="edge7" class="edge">
<title>cooldown&#45;&gt;recovering</title>
<path fill="none" stroke="#d97706" stroke-width="1.8" d="M1006.77,-605.98C949.96,-596.7 876.65,-586.25 811.01,-581.59 729.26,-575.8 708.32,-575.18 626.61,-581.59 564.44,-586.47 494.79,-597.72 442.63,-607.3"/>
<polygon fill="#d97706" stroke="#d97706" stroke-width="1.8" points="442.1,-604.55 434.74,-608.76 443.12,-610.06 442.1,-604.55"/>
<text text-anchor="middle" x="717.6" y="-569.02" font-family="Noto Sans CJK SC" font-size="10.00">7</text>
</g>
<!-- idle_closed&#45;&gt;recovering -->
<g id="edge9" class="edge">
<title>idle_closed&#45;&gt;recovering</title>
<path fill="none" stroke="#0284c7" stroke-width="1.8" d="M654.29,-448.24C592.09,-485.56 498.16,-541.91 433.79,-580.54"/>
<polygon fill="#0284c7" stroke="#0284c7" stroke-width="1.8" points="432.29,-578.17 426.87,-584.69 435.17,-582.97 432.29,-578.17"/>
<text text-anchor="middle" x="537.71" y="-519.39" font-family="Noto Sans CJK SC" font-size="10.00">9</text>
</g>
<!-- no_session&#45;&gt;recovering -->
<g id="edge4" class="edge">
<title>no_session:n&#45;&gt;recovering:s</title>
<path fill="none" stroke="#7c3aed" stroke-width="1.8" stroke-dasharray="5,2" d="M362.53,-448.52C354.83,-448.52 353.72,-547.88 359.19,-576.61"/>
<polygon fill="#7c3aed" stroke="#7c3aed" stroke-width="1.8" points="356.77,-578.07 362.53,-584.29 361.91,-575.84 356.77,-578.07"/>
<text text-anchor="middle" x="352.78" y="-519.32" font-family="Noto Sans CJK SC" font-size="10.00">4</text>
</g>
<!-- no_session&#45;&gt;cooldown -->
<g id="edge5" class="edge">
<title>no_session&#45;&gt;cooldown</title>
<path fill="none" stroke="#a855f7" stroke-width="1.8" stroke-dasharray="5,2" d="M460.55,-437.8C600.32,-478.12 855.75,-551.8 999.03,-593.13"/>
<polygon fill="#a855f7" stroke="#a855f7" stroke-width="1.8" points="998.57,-595.91 1007.03,-595.44 1000.12,-590.53 998.57,-595.91"/>
<text text-anchor="middle" x="730.71" y="-519.59" font-family="Noto Sans CJK SC" font-size="10.00">5</text>
</g>
<!-- uninitialized -->
<g id="node1" class="node">
<title>uninitialized</title>
<polygon fill="#e5e7eb" stroke="transparent" points="0.5,-621.29 0.5,-661.29 155.5,-661.29 155.5,-621.29 0.5,-621.29"/>
<polygon fill="none" stroke="#d7dee7" points="0.5,-621.29 0.5,-661.29 155.5,-661.29 155.5,-621.29 0.5,-621.29"/>
<text text-anchor="start" x="11.5" y="-638.49" font-family="Noto Sans CJK SC" font-size="14.00"> &#160;&#160;&#160;&#160;&#160;</text>
<text text-anchor="start" x="30.5" y="-638.49" font-family="Noto Sans CJK SC" font-weight="bold" font-size="16.00">Uninitialized</text>
<text text-anchor="start" x="131.5" y="-638.49" font-family="Noto Sans CJK SC" font-size="14.00"> &#160;&#160;&#160;</text>
<polygon fill="#fafafa" stroke="transparent" points="0.5,-584.29 0.5,-621.29 155.5,-621.29 155.5,-584.29 0.5,-584.29"/>
<polygon fill="none" stroke="#d7dee7" points="0.5,-584.29 0.5,-621.29 155.5,-621.29 155.5,-584.29 0.5,-584.29"/>
<text text-anchor="start" x="13" y="-600.09" font-family="Noto Sans CJK SC" font-size="14.00"> &#160;&#160;&#160;&#160;&#160;</text>
<text text-anchor="start" x="32" y="-600.09" font-family="Noto Sans CJK SC" font-size="10.00">初始态，尚未建立会话</text>
<text text-anchor="start" x="130" y="-600.09" font-family="Noto Sans CJK SC" font-size="14.00"> &#160;&#160;&#160;</text>
</g>
<!-- recovering -->
<g id="node2" class="node">
<title>recovering</title>
<polygon fill="#f8d86a" stroke="transparent" points="290.53,-621.29 290.53,-661.29 434.53,-661.29 434.53,-621.29 290.53,-621.29"/>
<polygon fill="none" stroke="#d7dee7" points="290.53,-621.29 290.53,-661.29 434.53,-661.29 434.53,-621.29 290.53,-621.29"/>
<text text-anchor="start" x="302.53" y="-638.49" font-family="Noto Sans CJK SC" font-size="14.00"> &#160;&#160;&#160;&#160;&#160;</text>
<text text-anchor="start" x="321.53" y="-638.49" font-family="Noto Sans CJK SC" font-weight="bold" font-size="16.00">Recovering</text>
<text text-anchor="start" x="409.53" y="-638.49" font-family="Noto Sans CJK SC" font-size="14.00"> &#160;&#160;&#160;</text>
<polygon fill="#fff9db" stroke="transparent" points="290.53,-584.29 290.53,-621.29 434.53,-621.29 434.53,-584.29 290.53,-584.29"/>
<polygon fill="none" stroke="#d7dee7" points="290.53,-584.29 290.53,-621.29 434.53,-621.29 434.53,-584.29 290.53,-584.29"/>
<text text-anchor="start" x="301.53" y="-600.09" font-family="Noto Sans CJK SC" font-size="14.00"> &#160;&#160;&#160;&#160;&#160;</text>
<text text-anchor="start" x="320.53" y="-600.09" font-family="Noto Sans CJK SC" font-size="10.00">正在 OpenSession()</text>
<text text-anchor="start" x="410.53" y="-600.09" font-family="Noto Sans CJK SC" font-size="14.00"> &#160;&#160;&#160;</text>
</g>
<!-- active -->
<g id="node3" class="node">
<title>active</title>
<polygon fill="#a7e3ae" stroke="transparent" points="629.81,-621.29 629.81,-661.29 807.81,-661.29 807.81,-621.29 629.81,-621.29"/>
<polygon fill="none" stroke="#d7dee7" points="629.81,-621.29 629.81,-661.29 807.81,-661.29 807.81,-621.29 629.81,-621.29"/>
<text text-anchor="start" x="678.31" y="-638.49" font-family="Noto Sans CJK SC" font-size="14.00"> &#160;&#160;&#160;&#160;&#160;</text>
<text text-anchor="start" x="697.31" y="-638.49" font-family="Noto Sans CJK SC" font-weight="bold" font-size="16.00">Active</text>
<text text-anchor="start" x="746.31" y="-638.49" font-family="Noto Sans CJK SC" font-size="14.00"> &#160;&#160;&#160;</text>
<polygon fill="#f2fff3" stroke="transparent" points="629.81,-584.29 629.81,-621.29 807.81,-621.29 807.81,-584.29 629.81,-584.29"/>
<polygon fill="none" stroke="#d7dee7" points="629.81,-584.29 629.81,-621.29 807.81,-621.29 807.81,-584.29 629.81,-584.29"/>
<text text-anchor="start" x="640.81" y="-600.09" font-family="Noto Sans CJK SC" font-size="14.00"> &#160;&#160;&#160;&#160;&#160;</text>
<text text-anchor="start" x="659.81" y="-600.09" font-family="Noto Sans CJK SC" font-size="10.00">正常服务，存在 live session</text>
<text text-anchor="start" x="783.81" y="-600.09" font-family="Noto Sans CJK SC" font-size="14.00"> &#160;&#160;&#160;</text>
</g>
<!-- cooldown -->
<g id="node4" class="node">
<title>cooldown</title>
<polygon fill="#ffb868" stroke="transparent" points="1007.6,-621.29 1007.6,-661.29 1200.6,-661.29 1200.6,-621.29 1007.6,-621.29"/>
<polygon fill="none" stroke="#d7dee7" points="1007.6,-621.29 1007.6,-661.29 1200.6,-661.29 1200.6,-621.29 1007.6,-621.29"/>
<text text-anchor="start" x="1048.1" y="-638.49" font-family="Noto Sans CJK SC" font-size="14.00"> &#160;&#160;&#160;&#160;&#160;</text>
<text text-anchor="start" x="1067.1" y="-638.49" font-family="Noto Sans CJK SC" font-weight="bold" font-size="16.00">Cooldown</text>
<text text-anchor="start" x="1147.1" y="-638.49" font-family="Noto Sans CJK SC" font-size="14.00"> &#160;&#160;&#160;</text>
<polygon fill="#fff3e3" stroke="transparent" points="1007.6,-584.29 1007.6,-621.29 1200.6,-621.29 1200.6,-584.29 1007.6,-584.29"/>
<polygon fill="none" stroke="#d7dee7" points="1007.6,-584.29 1007.6,-621.29 1200.6,-621.29 1200.6,-584.29 1007.6,-584.29"/>
<text text-anchor="start" x="1018.6" y="-600.09" font-family="Noto Sans CJK SC" font-size="14.00"> &#160;&#160;&#160;&#160;&#160;</text>
<text text-anchor="start" x="1037.6" y="-600.09" font-family="Noto Sans CJK SC" font-size="10.00">默认冷却 200ms，避免抖动拉起</text>
<text text-anchor="start" x="1176.6" y="-600.09" font-family="Noto Sans CJK SC" font-size="14.00"> &#160;&#160;&#160;</text>
</g>
<!-- closed -->
<g id="node5" class="node">
<title>closed</title>
<polygon fill="#4b5563" stroke="transparent" points="1312.38,-621.29 1312.38,-661.29 1436.38,-661.29 1436.38,-621.29 1312.38,-621.29"/>
<polygon fill="none" stroke="#d7dee7" points="1312.38,-621.29 1312.38,-661.29 1436.38,-661.29 1436.38,-621.29 1312.38,-621.29"/>
<text text-anchor="start" x="1331.38" y="-638.49" font-family="Noto Sans CJK SC" font-size="14.00"> &#160;&#160;&#160;&#160;&#160;</text>
<text text-anchor="start" x="1350.38" y="-638.49" font-family="Noto Sans CJK SC" font-weight="bold" font-size="16.00">Closed</text>
<text text-anchor="start" x="1404.38" y="-638.49" font-family="Noto Sans CJK SC" font-size="14.00"> &#160;&#160;&#160;</text>
<polygon fill="#e5e7eb" stroke="transparent" points="1312.38,-584.29 1312.38,-621.29 1436.38,-621.29 1436.38,-584.29 1312.38,-584.29"/>
<polygon fill="none" stroke="#d7dee7" points="1312.38,-584.29 1312.38,-621.29 1436.38,-621.29 1436.38,-584.29 1312.38,-584.29"/>
<text text-anchor="start" x="1323.38" y="-600.09" font-family="Noto Sans CJK SC" font-size="14.00"> &#160;&#160;&#160;&#160;&#160;</text>
<text text-anchor="start" x="1342.38" y="-600.09" font-family="Noto Sans CJK SC" font-size="10.00">Shutdown 终态</text>
<text text-anchor="start" x="1412.38" y="-600.09" font-family="Noto Sans CJK SC" font-size="14.00"> &#160;&#160;&#160;</text>
</g>
<!-- idle_closed -->
<g id="node6" class="node">
<title>idle_closed</title>
<polygon fill="#9fd7ff" stroke="transparent" points="623.81,-407.52 623.81,-447.52 814.81,-447.52 814.81,-407.52 623.81,-407.52"/>
<polygon fill="none" stroke="#d7dee7" points="623.81,-407.52 623.81,-447.52 814.81,-447.52 814.81,-407.52 623.81,-407.52"/>
<text text-anchor="start" x="661.31" y="-424.72" font-family="Noto Sans CJK SC" font-size="14.00"> &#160;&#160;&#160;&#160;&#160;</text>
<text text-anchor="start" x="680.31" y="-424.72" font-family="Noto Sans CJK SC" font-weight="bold" font-size="16.00">IdleClosed</text>
<text text-anchor="start" x="764.31" y="-424.72" font-family="Noto Sans CJK SC" font-size="14.00"> &#160;&#160;&#160;</text>
<polygon fill="#eff8ff" stroke="transparent" points="623.81,-370.52 623.81,-407.52 814.81,-407.52 814.81,-370.52 623.81,-370.52"/>
<polygon fill="none" stroke="#d7dee7" points="623.81,-370.52 623.81,-407.52 814.81,-407.52 814.81,-370.52 623.81,-370.52"/>
<text text-anchor="start" x="634.81" y="-386.32" font-family="Noto Sans CJK SC" font-size="14.00"> &#160;&#160;&#160;&#160;&#160;</text>
<text text-anchor="start" x="653.81" y="-386.32" font-family="Noto Sans CJK SC" font-size="10.00">空闲关闭，等待新请求重新拉起</text>
<text text-anchor="start" x="790.81" y="-386.32" font-family="Noto Sans CJK SC" font-size="14.00"> &#160;&#160;&#160;</text>
</g>
<!-- no_session -->
<g id="node7" class="node">
<title>no_session</title>
<polygon fill="#ffb0b0" stroke="transparent" points="264.53,-407.52 264.53,-447.52 460.53,-447.52 460.53,-407.52 264.53,-407.52"/>
<polygon fill="none" stroke="#d7dee7" points="264.53,-407.52 264.53,-447.52 460.53,-447.52 460.53,-407.52 264.53,-407.52"/>
<text text-anchor="start" x="305.53" y="-424.72" font-family="Noto Sans CJK SC" font-size="14.00"> &#160;&#160;&#160;&#160;&#160;</text>
<text text-anchor="start" x="324.53" y="-424.72" font-family="Noto Sans CJK SC" font-weight="bold" font-size="16.00">NoSession</text>
<text text-anchor="start" x="406.53" y="-424.72" font-family="Noto Sans CJK SC" font-size="14.00"> &#160;&#160;&#160;</text>
<polygon fill="#fff1f1" stroke="transparent" points="264.53,-370.52 264.53,-407.52 460.53,-407.52 460.53,-370.52 264.53,-370.52"/>
<polygon fill="none" stroke="#d7dee7" points="264.53,-370.52 264.53,-407.52 460.53,-407.52 460.53,-370.52 264.53,-370.52"/>
<text text-anchor="start" x="275.53" y="-386.32" font-family="Noto Sans CJK SC" font-size="14.00"> &#160;&#160;&#160;&#160;&#160;</text>
<text text-anchor="start" x="294.53" y="-386.32" font-family="Noto Sans CJK SC" font-size="10.00">恢复失败或显式 Ignore 后无会话</text>
<text text-anchor="start" x="436.53" y="-386.32" font-family="Noto Sans CJK SC" font-size="14.00"> &#160;&#160;&#160;</text>
</g>
<!-- legend -->
<g id="node8" class="node">
<title>legend</title>
<polygon fill="#eef3ff" stroke="transparent" points="507.81,-329.5 507.81,-362.5 930.81,-362.5 930.81,-329.5 507.81,-329.5"/>
<polygon fill="none" stroke="#d7dee7" points="507.81,-329.5 507.81,-362.5 930.81,-362.5 930.81,-329.5 507.81,-329.5"/>
<text text-anchor="start" x="677.31" y="-343.3" font-family="Noto Sans CJK SC" font-size="14.00"> &#160;&#160;&#160;&#160;&#160;</text>
<text text-anchor="start" x="696.31" y="-343.3" font-family="Noto Sans CJK SC" font-weight="bold" font-size="13.00">编号说明</text>
<text text-anchor="start" x="748.31" y="-343.3" font-family="Noto Sans CJK SC" font-size="14.00"> &#160;&#160;&#160;</text>
<polygon fill="#ffffff" stroke="transparent" points="507.81,-296.5 507.81,-329.5 570.81,-329.5 570.81,-296.5 507.81,-296.5"/>
<polygon fill="none" stroke="#d7dee7" points="507.81,-296.5 507.81,-329.5 570.81,-329.5 570.81,-296.5 507.81,-296.5"/>
<text text-anchor="start" x="516.81" y="-310.3" font-family="Noto Sans CJK SC" font-size="14.00"> &#160;&#160;&#160;&#160;&#160;</text>
<text text-anchor="start" x="535.81" y="-310.3" font-family="Noto Sans CJK SC" font-weight="bold" font-size="10.00">1</text>
<text text-anchor="start" x="542.81" y="-310.3" font-family="Noto Sans CJK SC" font-size="14.00"> &#160;&#160;&#160;</text>
<polygon fill="#ffffff" stroke="transparent" points="570.81,-296.5 570.81,-329.5 930.81,-329.5 930.81,-296.5 570.81,-296.5"/>
<polygon fill="none" stroke="#d7dee7" points="570.81,-296.5 570.81,-329.5 930.81,-329.5 930.81,-296.5 570.81,-296.5"/>
<text text-anchor="start" x="579.81" y="-310.3" font-family="Noto Sans CJK SC" font-size="14.00"> &#160;&#160;&#160;&#160;&#160;</text>
<text text-anchor="start" x="598.81" y="-310.3" font-family="Noto Sans CJK SC" font-size="10.00">Init</text>
<text text-anchor="start" x="614.81" y="-310.3" font-family="Noto Sans CJK SC" font-size="14.00"> &#160;&#160;&#160;</text>
<polygon fill="#ffffff" stroke="transparent" points="507.81,-263.5 507.81,-296.5 570.81,-296.5 570.81,-263.5 507.81,-263.5"/>
<polygon fill="none" stroke="#d7dee7" points="507.81,-263.5 507.81,-296.5 570.81,-296.5 570.81,-263.5 507.81,-263.5"/>
<text text-anchor="start" x="516.81" y="-277.3" font-family="Noto Sans CJK SC" font-size="14.00"> &#160;&#160;&#160;&#160;&#160;</text>
<text text-anchor="start" x="535.81" y="-277.3" font-family="Noto Sans CJK SC" font-weight="bold" font-size="10.00">2</text>
<text text-anchor="start" x="542.81" y="-277.3" font-family="Noto Sans CJK SC" font-size="14.00"> &#160;&#160;&#160;</text>
<polygon fill="#ffffff" stroke="transparent" points="570.81,-263.5 570.81,-296.5 930.81,-296.5 930.81,-263.5 570.81,-263.5"/>
<polygon fill="none" stroke="#d7dee7" points="570.81,-263.5 570.81,-296.5 930.81,-296.5 930.81,-263.5 570.81,-263.5"/>
<text text-anchor="start" x="579.81" y="-277.3" font-family="Noto Sans CJK SC" font-size="14.00"> &#160;&#160;&#160;&#160;&#160;</text>
<text text-anchor="start" x="598.81" y="-277.3" font-family="Noto Sans CJK SC" font-size="10.00">OpenSession 成功</text>
<text text-anchor="start" x="680.81" y="-277.3" font-family="Noto Sans CJK SC" font-size="14.00"> &#160;&#160;&#160;</text>
<polygon fill="#ffffff" stroke="transparent" points="507.81,-230.5 507.81,-263.5 570.81,-263.5 570.81,-230.5 507.81,-230.5"/>
<polygon fill="none" stroke="#d7dee7" points="507.81,-230.5 507.81,-263.5 570.81,-263.5 570.81,-230.5 507.81,-230.5"/>
<text text-anchor="start" x="516.81" y="-244.3" font-family="Noto Sans CJK SC" font-size="14.00"> &#160;&#160;&#160;&#160;&#160;</text>
<text text-anchor="start" x="535.81" y="-244.3" font-family="Noto Sans CJK SC" font-weight="bold" font-size="10.00">3</text>
<text text-anchor="start" x="542.81" y="-244.3" font-family="Noto Sans CJK SC" font-size="14.00"> &#160;&#160;&#160;</text>
<polygon fill="#ffffff" stroke="transparent" points="570.81,-230.5 570.81,-263.5 930.81,-263.5 930.81,-230.5 570.81,-230.5"/>
<polygon fill="none" stroke="#d7dee7" points="570.81,-230.5 570.81,-263.5 930.81,-263.5 930.81,-230.5 570.81,-230.5"/>
<text text-anchor="start" x="579.81" y="-244.3" font-family="Noto Sans CJK SC" font-size="14.00"> &#160;&#160;&#160;&#160;&#160;</text>
<text text-anchor="start" x="598.81" y="-244.3" font-family="Noto Sans CJK SC" font-size="10.00">OpenSession 失败</text>
<text text-anchor="start" x="680.81" y="-244.3" font-family="Noto Sans CJK SC" font-size="14.00"> &#160;&#160;&#160;</text>
<polygon fill="#ffffff" stroke="transparent" points="507.81,-197.5 507.81,-230.5 570.81,-230.5 570.81,-197.5 507.81,-197.5"/>
<polygon fill="none" stroke="#d7dee7" points="507.81,-197.5 507.81,-230.5 570.81,-230.5 570.81,-197.5 507.81,-197.5"/>
<text text-anchor="start" x="516.81" y="-211.3" font-family="Noto Sans CJK SC" font-size="14.00"> &#160;&#160;&#160;&#160;&#160;</text>
<text text-anchor="start" x="535.81" y="-211.3" font-family="Noto Sans CJK SC" font-weight="bold" font-size="10.00">4</text>
<text text-anchor="start" x="542.81" y="-211.3" font-family="Noto Sans CJK SC" font-size="14.00"> &#160;&#160;&#160;</text>
<polygon fill="#ffffff" stroke="transparent" points="570.81,-197.5 570.81,-230.5 930.81,-230.5 930.81,-197.5 570.81,-197.5"/>
<polygon fill="none" stroke="#d7dee7" points="570.81,-197.5 570.81,-230.5 930.81,-230.5 930.81,-197.5 570.81,-197.5"/>
<text text-anchor="start" x="579.81" y="-211.3" font-family="Noto Sans CJK SC" font-size="14.00"> &#160;&#160;&#160;&#160;&#160;</text>
<text text-anchor="start" x="598.81" y="-211.3" font-family="Noto Sans CJK SC" font-size="10.00">NewRequest / 外部恢复(delay = 0)，重试 OpenSession</text>
<text text-anchor="start" x="843.81" y="-211.3" font-family="Noto Sans CJK SC" font-size="14.00"> &#160;&#160;&#160;</text>
<polygon fill="#ffffff" stroke="transparent" points="507.81,-164.5 507.81,-197.5 570.81,-197.5 570.81,-164.5 507.81,-164.5"/>
<polygon fill="none" stroke="#d7dee7" points="507.81,-164.5 507.81,-197.5 570.81,-197.5 570.81,-164.5 507.81,-164.5"/>
<text text-anchor="start" x="516.81" y="-178.3" font-family="Noto Sans CJK SC" font-size="14.00"> &#160;&#160;&#160;&#160;&#160;</text>
<text text-anchor="start" x="535.81" y="-178.3" font-family="Noto Sans CJK SC" font-weight="bold" font-size="10.00">5</text>
<text text-anchor="start" x="542.81" y="-178.3" font-family="Noto Sans CJK SC" font-size="14.00"> &#160;&#160;&#160;</text>
<polygon fill="#ffffff" stroke="transparent" points="570.81,-164.5 570.81,-197.5 930.81,-197.5 930.81,-164.5 570.81,-164.5"/>
<polygon fill="none" stroke="#d7dee7" points="570.81,-164.5 570.81,-197.5 930.81,-197.5 930.81,-164.5 570.81,-164.5"/>
<text text-anchor="start" x="579.81" y="-178.3" font-family="Noto Sans CJK SC" font-size="14.00"> &#160;&#160;&#160;&#160;&#160;</text>
<text text-anchor="start" x="598.81" y="-178.3" font-family="Noto Sans CJK SC" font-size="10.00">外部恢复(delay &gt; 0)</text>
<text text-anchor="start" x="686.81" y="-178.3" font-family="Noto Sans CJK SC" font-size="14.00"> &#160;&#160;&#160;</text>
<polygon fill="#ffffff" stroke="transparent" points="507.81,-131.5 507.81,-164.5 570.81,-164.5 570.81,-131.5 507.81,-131.5"/>
<polygon fill="none" stroke="#d7dee7" points="507.81,-131.5 507.81,-164.5 570.81,-164.5 570.81,-131.5 507.81,-131.5"/>
<text text-anchor="start" x="516.81" y="-145.3" font-family="Noto Sans CJK SC" font-size="14.00"> &#160;&#160;&#160;&#160;&#160;</text>
<text text-anchor="start" x="535.81" y="-145.3" font-family="Noto Sans CJK SC" font-weight="bold" font-size="10.00">6</text>
<text text-anchor="start" x="542.81" y="-145.3" font-family="Noto Sans CJK SC" font-size="14.00"> &#160;&#160;&#160;</text>
<polygon fill="#ffffff" stroke="transparent" points="570.81,-131.5 570.81,-164.5 930.81,-164.5 930.81,-131.5 570.81,-131.5"/>
<polygon fill="none" stroke="#d7dee7" points="570.81,-131.5 570.81,-164.5 930.81,-164.5 930.81,-131.5 570.81,-131.5"/>
<text text-anchor="start" x="579.81" y="-145.3" font-family="Noto Sans CJK SC" font-size="14.00"> &#160;&#160;&#160;&#160;&#160;</text>
<text text-anchor="start" x="598.81" y="-145.3" font-family="Noto Sans CJK SC" font-size="10.00">EngineDeath / ExecTimeout，默认 Restart(200ms)</text>
<text text-anchor="start" x="827.81" y="-145.3" font-family="Noto Sans CJK SC" font-size="14.00"> &#160;&#160;&#160;</text>
<polygon fill="#ffffff" stroke="transparent" points="507.81,-98.5 507.81,-131.5 570.81,-131.5 570.81,-98.5 507.81,-98.5"/>
<polygon fill="none" stroke="#d7dee7" points="507.81,-98.5 507.81,-131.5 570.81,-131.5 570.81,-98.5 507.81,-98.5"/>
<text text-anchor="start" x="516.81" y="-112.3" font-family="Noto Sans CJK SC" font-size="14.00"> &#160;&#160;&#160;&#160;&#160;</text>
<text text-anchor="start" x="535.81" y="-112.3" font-family="Noto Sans CJK SC" font-weight="bold" font-size="10.00">7</text>
<text text-anchor="start" x="542.81" y="-112.3" font-family="Noto Sans CJK SC" font-size="14.00"> &#160;&#160;&#160;</text>
<polygon fill="#ffffff" stroke="transparent" points="570.81,-98.5 570.81,-131.5 930.81,-131.5 930.81,-98.5 570.81,-98.5"/>
<polygon fill="none" stroke="#d7dee7" points="570.81,-98.5 570.81,-131.5 930.81,-131.5 930.81,-98.5 570.81,-98.5"/>
<text text-anchor="start" x="579.81" y="-112.3" font-family="Noto Sans CJK SC" font-size="14.00"> &#160;&#160;&#160;&#160;&#160;</text>
<text text-anchor="start" x="598.81" y="-112.3" font-family="Noto Sans CJK SC" font-size="10.00">冷却结束，开始恢复</text>
<text text-anchor="start" x="686.81" y="-112.3" font-family="Noto Sans CJK SC" font-size="14.00"> &#160;&#160;&#160;</text>
<polygon fill="#ffffff" stroke="transparent" points="507.81,-65.5 507.81,-98.5 570.81,-98.5 570.81,-65.5 507.81,-65.5"/>
<polygon fill="none" stroke="#d7dee7" points="507.81,-65.5 507.81,-98.5 570.81,-98.5 570.81,-65.5 507.81,-65.5"/>
<text text-anchor="start" x="516.81" y="-79.3" font-family="Noto Sans CJK SC" font-size="14.00"> &#160;&#160;&#160;&#160;&#160;</text>
<text text-anchor="start" x="535.81" y="-79.3" font-family="Noto Sans CJK SC" font-weight="bold" font-size="10.00">8</text>
<text text-anchor="start" x="542.81" y="-79.3" font-family="Noto Sans CJK SC" font-size="14.00"> &#160;&#160;&#160;</text>
<polygon fill="#ffffff" stroke="transparent" points="570.81,-65.5 570.81,-98.5 930.81,-98.5 930.81,-65.5 570.81,-65.5"/>
<polygon fill="none" stroke="#d7dee7" points="570.81,-65.5 570.81,-98.5 930.81,-98.5 930.81,-65.5 570.81,-65.5"/>
<text text-anchor="start" x="579.81" y="-79.3" font-family="Noto Sans CJK SC" font-size="14.00"> &#160;&#160;&#160;&#160;&#160;</text>
<text text-anchor="start" x="598.81" y="-79.3" font-family="Noto Sans CJK SC" font-size="10.00">idle &gt;= 60000ms</text>
<text text-anchor="start" x="671.81" y="-79.3" font-family="Noto Sans CJK SC" font-size="14.00"> &#160;&#160;&#160;</text>
<polygon fill="#ffffff" stroke="transparent" points="507.81,-32.5 507.81,-65.5 570.81,-65.5 570.81,-32.5 507.81,-32.5"/>
<polygon fill="none" stroke="#d7dee7" points="507.81,-32.5 507.81,-65.5 570.81,-65.5 570.81,-32.5 507.81,-32.5"/>
<text text-anchor="start" x="516.81" y="-46.3" font-family="Noto Sans CJK SC" font-size="14.00"> &#160;&#160;&#160;&#160;&#160;</text>
<text text-anchor="start" x="535.81" y="-46.3" font-family="Noto Sans CJK SC" font-weight="bold" font-size="10.00">9</text>
<text text-anchor="start" x="542.81" y="-46.3" font-family="Noto Sans CJK SC" font-size="14.00"> &#160;&#160;&#160;</text>
<polygon fill="#ffffff" stroke="transparent" points="570.81,-32.5 570.81,-65.5 930.81,-65.5 930.81,-32.5 570.81,-32.5"/>
<polygon fill="none" stroke="#d7dee7" points="570.81,-32.5 570.81,-65.5 930.81,-65.5 930.81,-32.5 570.81,-32.5"/>
<text text-anchor="start" x="579.81" y="-46.3" font-family="Noto Sans CJK SC" font-size="14.00"> &#160;&#160;&#160;&#160;&#160;</text>
<text text-anchor="start" x="598.81" y="-46.3" font-family="Noto Sans CJK SC" font-size="10.00">IdleClosed 收到 NewRequest</text>
<text text-anchor="start" x="729.81" y="-46.3" font-family="Noto Sans CJK SC" font-size="14.00"> &#160;&#160;&#160;</text>
<polygon fill="#ffffff" stroke="transparent" points="507.81,0.5 507.81,-32.5 570.81,-32.5 570.81,0.5 507.81,0.5"/>
<polygon fill="none" stroke="#d7dee7" points="507.81,0.5 507.81,-32.5 570.81,-32.5 570.81,0.5 507.81,0.5"/>
<text text-anchor="start" x="516.81" y="-13.3" font-family="Noto Sans CJK SC" font-size="14.00"> &#160;&#160;&#160;&#160;&#160;</text>
<text text-anchor="start" x="535.81" y="-13.3" font-family="Noto Sans CJK SC" font-weight="bold" font-size="10.00">10</text>
<text text-anchor="start" x="548.81" y="-13.3" font-family="Noto Sans CJK SC" font-size="14.00"> &#160;&#160;&#160;</text>
<polygon fill="#ffffff" stroke="transparent" points="570.81,0.5 570.81,-32.5 930.81,-32.5 930.81,0.5 570.81,0.5"/>
<polygon fill="none" stroke="#d7dee7" points="570.81,0.5 570.81,-32.5 930.81,-32.5 930.81,0.5 570.81,0.5"/>
<text text-anchor="start" x="579.81" y="-13.3" font-family="Noto Sans CJK SC" font-size="14.00"> &#160;&#160;&#160;&#160;&#160;</text>
<text text-anchor="start" x="598.81" y="-13.3" font-family="Noto Sans CJK SC" font-size="10.00">Shutdown</text>
<text text-anchor="start" x="647.81" y="-13.3" font-family="Noto Sans CJK SC" font-size="14.00"> &#160;&#160;&#160;</text>
</g>
</g>
</svg>
